<svg width="2997" height="1713" viewBox="0 0 2997 1713" fill="none" xmlns="http://www.w3.org/2000/svg">
<g clip-path="url(#clip0_1_216)">
<mask id="mask0_1_216" style="mask-type:luminance" maskUnits="userSpaceOnUse" x="0" y="0" width="2997" height="1713">
<path d="M2997 0H0V1713H2997V0Z" fill="white"/>
</mask>
<g mask="url(#mask0_1_216)">
<path d="M2997 0H0V1713H2997V0Z" fill="white"/>
<path d="M2998 0H0V1713H2998V0Z" fill="white"/>
<path d="M2883.33 986.667C2878.75 986.667 2874.83 985.035 2871.56 981.771C2868.3 978.507 2866.67 974.583 2866.67 970V870C2866.67 865.417 2868.3 861.493 2871.56 858.229C2874.83 854.965 2878.75 853.333 2883.33 853.333H2933.33L2950 870H3016.67C3021.25 870 3025.17 871.632 3028.44 874.896C3031.7 878.16 3033.33 882.083 3033.33 886.667V970C3033.33 974.583 3031.7 978.507 3028.44 981.771C3025.17 985.035 3021.25 986.667 3016.67 986.667H2883.33ZM2883.33 970H3016.67V886.667H2943.12L2926.46 870H2883.33V970Z" fill="black"/>
<path d="M1437.7 1538.68L1434.58 1513.25L1474.69 1462.14C1475.78 1460.75 1477.05 1459.69 1478.49 1458.95C1479.94 1458.21 1481.43 1457.75 1482.94 1457.56C1484.6 1457.36 1486.22 1457.47 1487.81 1457.91C1489.4 1458.34 1490.9 1459.1 1492.29 1460.19L1500.88 1466.9C1502.14 1468.01 1503.17 1469.28 1503.97 1470.72C1504.78 1472.16 1505.28 1473.64 1505.46 1475.16C1505.65 1476.67 1505.56 1478.26 1505.21 1479.91C1504.85 1481.56 1504.13 1483.09 1503.04 1484.48L1463.13 1535.56L1437.7 1538.68ZM1448.58 1524.75L1456.44 1523.79L1478.36 1495.49L1474.16 1492.01L1469.77 1488.78L1447.62 1516.89L1448.58 1524.75ZM1371.53 1546.81C1366.98 1547.36 1362.89 1546.22 1359.25 1543.38C1355.61 1540.54 1353.51 1536.84 1352.96 1532.29L1336.71 1399.95C1336.15 1395.41 1337.29 1391.31 1340.13 1387.68C1342.97 1384.04 1346.67 1381.94 1351.22 1381.38L1417.39 1373.26L1473.11 1416.79L1476.15 1441.6L1459.61 1443.64L1457.58 1427.09L1416.22 1432.17L1411.15 1390.81L1353.25 1397.92L1369.5 1530.26L1419.12 1524.17L1421.16 1540.71L1371.53 1546.81ZM1474.16 1492.01L1469.77 1488.78L1478.36 1495.49L1474.16 1492.01Z" fill="black"/>
<path d="M1640.67 1632V1590.33H1682.33V1607H1657.33V1632H1640.67ZM1790.67 1632V1607H1765.67V1590.33H1807.33V1632H1790.67ZM1640.67 1773.67V1732H1657.33V1757H1682.33V1773.67H1640.67ZM1765.67 1773.67V1757H1790.67V1732H1807.33V1773.67H1765.67ZM1682.33 1732H1765.67V1632H1682.33V1732ZM1682.33 1748.67C1677.75 1748.67 1673.83 1747.03 1670.56 1743.77C1667.3 1740.51 1665.67 1736.58 1665.67 1732V1632C1665.67 1627.42 1667.3 1623.49 1670.56 1620.23C1673.83 1616.97 1677.75 1615.33 1682.33 1615.33H1765.67C1770.25 1615.33 1774.17 1616.97 1777.44 1620.23C1780.7 1623.49 1782.33 1627.42 1782.33 1632V1732C1782.33 1736.58 1780.7 1740.51 1777.44 1743.77C1774.17 1747.03 1770.25 1748.67 1765.67 1748.67H1682.33ZM1699 1665.33H1749V1648.67H1699V1665.33ZM1699 1690.33H1749V1673.67H1699V1690.33ZM1699 1715.33H1749V1698.67H1699V1715.33Z" fill="black"/>
<path d="M900.667 684V642.333H942.333V659H917.333V684H900.667ZM1050.67 684V659H1025.67V642.333H1067.33V684H1050.67ZM900.667 825.667V784H917.333V809H942.333V825.667H900.667ZM1025.67 825.667V809H1050.67V784H1067.33V825.667H1025.67ZM942.333 784H1025.67V684H942.333V784ZM942.333 800.667C937.75 800.667 933.826 799.035 930.562 795.771C927.298 792.507 925.667 788.583 925.667 784V684C925.667 679.417 927.298 675.493 930.562 672.229C933.826 668.965 937.75 667.333 942.333 667.333H1025.67C1030.25 667.333 1034.17 668.965 1037.44 672.229C1040.7 675.493 1042.33 679.417 1042.33 684V784C1042.33 788.583 1040.7 792.507 1037.44 795.771C1034.17 799.035 1030.25 800.667 1025.67 800.667H942.333ZM959 717.333H1009V700.667H959V717.333ZM959 742.333H1009V725.667H959V742.333ZM959 767.333H1009V750.667H959V767.333Z" fill="black"/>
<mask id="mask1_1_216" style="mask-type:luminance" maskUnits="userSpaceOnUse" x="790" y="116" width="284" height="284">
<path d="M1073.34 262.936L936.936 116.665L790.665 253.065L927.064 399.335L1073.34 262.936Z" fill="white"/>
</mask>
<g mask="url(#mask1_1_216)">
<path d="M903.172 239.305L948.639 288.062L960.828 276.695L915.361 227.938L903.172 239.305ZM884.888 256.355L930.355 305.112L942.544 293.745L897.077 244.988L884.888 256.355ZM866.604 273.405L895.021 303.878L907.21 292.511L878.794 262.038L866.604 273.405ZM836.954 278.266C833.828 274.914 832.346 270.931 832.507 266.318C832.668 261.705 834.424 257.835 837.776 254.71L935.29 163.777C938.642 160.651 942.625 159.168 947.238 159.329C951.851 159.491 955.72 161.247 958.846 164.599L1004.31 213.356L1001.84 284.024L928.71 352.224C925.357 355.349 921.375 356.832 916.762 356.671C912.149 356.51 908.279 354.753 905.154 351.401L836.954 278.266ZM955.967 247.045L986.44 218.628L946.657 175.966L849.143 266.899L917.343 340.034L984.384 277.518L955.967 247.045Z" fill="black"/>
</g>
<path d="M1623.79 313.838L1689 299.977L1685.54 283.674L1620.33 297.535L1623.79 313.838ZM1616.86 281.233L1682.07 267.372L1678.61 251.07L1613.4 264.93L1616.86 281.233ZM1614.42 349.908C1609.94 350.861 1605.76 350.08 1601.89 347.566C1598.02 345.052 1595.6 341.554 1594.65 337.071L1566.93 206.651C1565.98 202.168 1566.76 197.991 1569.27 194.119C1571.79 190.248 1575.28 187.836 1579.77 186.883L1644.98 173.022L1704.28 211.534L1725.07 309.349C1726.02 313.832 1725.24 318.009 1722.73 321.88C1720.22 325.752 1716.72 328.164 1712.23 329.117L1614.42 349.908ZM1648.95 231.814L1640.29 191.057L1583.23 203.186L1610.95 333.605L1708.77 312.814L1689.71 223.151L1648.95 231.814Z" fill="black"/>
<path d="M244.659 1730.3C242.15 1744.53 235.023 1755.75 223.278 1763.98C211.533 1772.2 198.547 1775.06 184.322 1772.55C170.097 1770.04 158.873 1762.92 150.648 1751.17C142.424 1739.42 139.566 1726.44 142.074 1712.21L155.46 1636.3C157.269 1626.04 162.397 1617.96 170.844 1612.04C179.291 1606.13 188.643 1604.08 198.902 1605.88C209.16 1607.69 217.247 1612.82 223.162 1621.27C229.076 1629.71 231.129 1639.07 229.32 1649.33L216.659 1721.14C215.549 1727.43 212.42 1732.38 207.271 1735.98C202.123 1739.59 196.402 1740.83 190.111 1739.72C183.819 1738.61 178.87 1735.49 175.265 1730.34C171.66 1725.19 170.412 1719.47 171.522 1713.18L184.907 1637.26L201.32 1640.16L187.935 1716.07C187.621 1717.85 187.943 1719.42 188.901 1720.79C189.859 1722.16 191.227 1723 193.005 1723.31C194.783 1723.62 196.356 1723.3 197.723 1722.34C199.091 1721.39 199.932 1720.02 200.245 1718.24L212.907 1646.43C213.783 1640.66 212.622 1635.45 209.423 1630.8C206.224 1626.14 201.752 1623.31 196.008 1622.3C190.263 1621.28 185.058 1622.41 180.392 1625.68C175.726 1628.95 172.886 1633.45 171.873 1639.2L158.488 1715.11C156.639 1724.8 158.537 1733.63 164.182 1741.6C169.827 1749.58 177.505 1754.43 187.216 1756.14C196.791 1757.83 205.526 1755.88 213.422 1750.29C221.318 1744.7 226.259 1737.07 228.245 1727.41L242.354 1647.39L258.767 1650.29L244.659 1730.3Z" fill="black"/>
<path d="M417 387L450.333 353.667L438.667 342L425.333 355.333V320.333H408.667V355.333L395.333 342L383.667 353.667L417 387ZM358.667 303.667V395.333H475.333V303.667H358.667ZM358.667 412C354.083 412 350.16 410.368 346.896 407.104C343.632 403.84 342 399.917 342 395.333V291.375C342 289.431 342.312 287.556 342.937 285.75C343.562 283.944 344.5 282.278 345.75 280.75L356.167 268.042C357.694 266.097 359.604 264.604 361.896 263.562C364.187 262.521 366.583 262 369.083 262H464.917C467.417 262 469.812 262.521 472.104 263.562C474.396 264.604 476.306 266.097 477.833 268.042L488.25 280.75C489.5 282.278 490.437 283.944 491.062 285.75C491.687 287.556 492 289.431 492 291.375V395.333C492 399.917 490.368 403.84 487.104 407.104C483.84 410.368 479.917 412 475.333 412H358.667ZM362 287H472L464.917 278.667H369.083L362 287Z" fill="black"/>
<path d="M306.667 728C302.083 728 298.16 726.368 294.896 723.104C291.632 719.84 290 715.917 290 711.333V594.667C290 590.083 291.632 586.16 294.896 582.896C298.16 579.632 302.083 578 306.667 578H373.333V594.667H306.667V711.333H423.333V644.667H440V711.333C440 715.917 438.368 719.84 435.104 723.104C431.84 726.368 427.917 728 423.333 728H306.667ZM315 694.667H415L383.75 653L358.75 686.333L340 661.333L315 694.667ZM406.667 628V611.333H390V594.667H406.667V578H423.333V594.667H440V611.333H423.333V628H406.667Z" fill="black"/>
<mask id="mask2_1_216" style="mask-type:luminance" maskUnits="userSpaceOnUse" x="2521" y="207" width="236" height="236">
<path d="M2718.09 207.756L2521.76 245.918L2559.92 442.243L2756.25 404.082L2718.09 207.756Z" fill="white"/>
</mask>
<g mask="url(#mask2_1_216)">
<path d="M2596.05 409.753C2591.55 410.627 2587.39 409.774 2583.56 407.193C2579.73 404.611 2577.38 401.071 2576.51 396.572L2554.25 282.049C2553.37 277.55 2554.23 273.387 2556.81 269.56C2559.39 265.734 2562.93 263.383 2567.43 262.508L2632.87 249.788L2636.05 266.148L2570.61 278.869L2592.87 393.392L2707.39 371.131L2694.67 305.689L2711.03 302.509L2723.75 367.951C2724.63 372.45 2723.77 376.613 2721.19 380.44C2718.61 384.266 2715.07 386.617 2710.57 387.491L2596.05 409.753ZM2597.87 375.442L2696.03 356.361L2657.41 321.422L2639.23 358.913L2616.05 337.95L2597.87 375.442ZM2675.13 292.509L2671.95 276.148L2655.59 279.329L2652.41 262.968L2668.77 259.788L2665.59 243.428L2681.95 240.247L2685.13 256.608L2701.49 253.428L2704.67 269.788L2688.31 272.968L2691.49 289.329L2675.13 292.509Z" fill="black"/>
</g>
<path d="M357.667 1256C353.083 1256 349.16 1254.37 345.896 1251.1C342.632 1247.84 341 1243.92 341 1239.33V1122.67C341 1118.08 342.632 1114.16 345.896 1110.9C349.16 1107.63 353.083 1106 357.667 1106H474.333C478.917 1106 482.84 1107.63 486.104 1110.9C489.368 1114.16 491 1118.08 491 1122.67V1178.5C488.361 1177.25 485.653 1176.17 482.875 1175.27C480.097 1174.37 477.25 1173.71 474.333 1173.29V1122.67H357.667V1239.33H408.083C408.5 1242.39 409.16 1245.31 410.063 1248.08C410.965 1250.86 412.042 1253.5 413.292 1256H357.667ZM357.667 1231V1239.33V1122.67V1173.29V1172.67V1231ZM374.333 1222.67H408.292C408.708 1219.75 409.368 1216.9 410.271 1214.12C411.174 1211.35 412.181 1208.64 413.292 1206H374.333V1222.67ZM374.333 1189.33H425.167C429.611 1185.17 434.576 1181.69 440.063 1178.92C445.549 1176.14 451.417 1174.26 457.667 1173.29V1172.67H374.333V1189.33ZM374.333 1156H457.667V1139.33H374.333V1156ZM466 1272.67C454.472 1272.67 444.646 1268.6 436.521 1260.48C428.396 1252.35 424.333 1242.53 424.333 1231C424.333 1219.47 428.396 1209.65 436.521 1201.52C444.646 1193.4 454.472 1189.33 466 1189.33C477.528 1189.33 487.354 1193.4 495.479 1201.52C503.604 1209.65 507.667 1219.47 507.667 1231C507.667 1242.53 503.604 1252.35 495.479 1260.48C487.354 1268.6 477.528 1272.67 466 1272.67ZM461.833 1256H470.167V1235.17H491V1226.83H470.167V1206H461.833V1226.83H441V1235.17H461.833V1256Z" fill="black"/>
<mask id="mask3_1_216" style="mask-type:luminance" maskUnits="userSpaceOnUse" x="1277" y="733" width="246" height="246">
<path d="M1470.71 733.525L1277.53 785.289L1329.29 978.474L1522.48 926.71L1470.71 733.525Z" fill="white"/>
</mask>
<g mask="url(#mask3_1_216)">
<path d="M1363.07 943.542C1358.64 944.728 1354.43 944.168 1350.43 941.86C1346.43 939.552 1343.84 936.184 1342.65 931.757L1312.46 819.066C1311.27 814.639 1311.83 810.426 1314.14 806.429C1316.45 802.431 1319.82 799.84 1324.24 798.653L1436.93 768.458C1441.36 767.271 1445.57 767.832 1449.57 770.14C1453.57 772.448 1456.16 775.816 1457.35 780.243L1471.8 834.174C1468.92 833.649 1466.03 833.311 1463.11 833.157C1460.2 833.004 1457.28 833.104 1454.35 833.456L1441.25 784.556L1328.56 814.752L1358.75 927.443L1407.45 914.395C1408.64 917.238 1410.04 919.885 1411.63 922.334C1413.22 924.784 1414.94 927.054 1416.8 929.145L1363.07 943.542ZM1356.6 919.394L1358.75 927.443L1328.56 814.752L1341.66 863.652L1341.5 863.048L1356.6 919.394ZM1370.54 907.031L1403.34 898.242C1402.99 895.317 1402.89 892.396 1403.04 889.479C1403.19 886.562 1403.46 883.686 1403.85 880.849L1366.22 890.932L1370.54 907.031ZM1361.91 874.833L1411.01 861.677C1414.23 856.502 1418.12 851.863 1422.7 847.76C1427.28 843.657 1432.47 840.327 1438.25 837.77L1438.09 837.166L1357.6 858.735L1361.91 874.833ZM1353.28 842.636L1433.78 821.068L1429.46 804.969L1348.97 826.537L1353.28 842.636ZM1472.02 931.602C1460.89 934.586 1450.34 933.205 1440.39 927.46C1430.44 921.714 1423.97 913.274 1420.99 902.139C1418.01 891.004 1419.39 880.461 1425.13 870.51C1430.88 860.559 1439.32 854.092 1450.45 851.108C1461.59 848.125 1472.13 849.506 1482.08 855.251C1492.03 860.996 1498.5 869.436 1501.48 880.571C1504.47 891.706 1503.09 902.249 1497.34 912.2C1491.6 922.151 1483.16 928.619 1472.02 931.602ZM1463.68 916.582L1471.73 914.425L1466.34 894.302L1486.46 888.909L1484.31 880.86L1464.18 886.252L1458.79 866.129L1450.74 868.286L1456.13 888.409L1436.01 893.801L1438.17 901.85L1458.29 896.458L1463.68 916.582Z" fill="black"/>
</g>
<path d="M2737.33 686.667C2732.75 686.667 2728.83 685.035 2725.56 681.771C2722.3 678.507 2720.67 674.583 2720.67 670V586.667C2720.67 582.083 2722.3 578.16 2725.56 574.896C2728.83 571.632 2732.75 570 2737.33 570H2787.33L2804 553.333H2870.67C2875.25 553.333 2879.17 554.965 2882.44 558.229C2885.7 561.493 2887.33 565.417 2887.33 570V670C2887.33 674.583 2885.7 678.507 2882.44 681.771C2879.17 685.035 2875.25 686.667 2870.67 686.667H2737.33ZM2752.54 628.333H2795.67V585.208L2752.54 628.333ZM2737.33 620L2770.67 586.667H2737.33V620ZM2737.33 645V670H2870.67V570H2812.33V628.333C2812.33 632.917 2810.7 636.84 2807.44 640.104C2804.17 643.368 2800.25 645 2795.67 645H2737.33Z" fill="black"/>
<mask id="mask4_1_216" style="mask-type:luminance" maskUnits="userSpaceOnUse" x="2344" y="720" width="274" height="274">
<path d="M2517.6 720.397L2344.4 820.397L2444.4 993.602L2617.6 893.602L2517.6 720.397Z" fill="white"/>
</mask>
<g mask="url(#mask4_1_216)">
<path d="M2490.78 870.6L2485.82 889.099L2501.76 893.369L2514.03 847.55L2468.22 835.273L2463.95 851.21L2482.44 856.167L2452.13 873.667L2460.47 888.1L2490.78 870.6ZM2456.6 948.068C2452.63 950.36 2448.42 950.909 2443.96 949.714C2439.5 948.519 2436.12 945.937 2433.83 941.968L2383.83 855.365C2381.54 851.396 2380.99 847.182 2382.19 842.724C2383.38 838.265 2385.96 834.89 2389.93 832.598L2433.23 807.598L2456 813.699L2513.74 780.365C2517.7 778.074 2521.92 777.525 2526.38 778.72C2530.84 779.915 2534.21 782.497 2536.5 786.466L2578.17 858.635C2580.46 862.604 2581.01 866.818 2579.81 871.276C2578.62 875.735 2576.04 879.11 2572.07 881.402L2456.6 948.068ZM2448.27 933.635L2563.74 866.968L2522.07 794.799L2458.38 831.57L2435.61 825.47L2398.27 847.032L2448.27 933.635Z" fill="black"/>
</g>
<mask id="mask5_1_216" style="mask-type:luminance" maskUnits="userSpaceOnUse" x="2755" y="1233" width="284" height="284">
<path d="M2897 1233.58L2755.58 1375L2897 1516.42L3038.42 1375L2897 1233.58Z" fill="white"/>
</mask>
<g mask="url(#mask5_1_216)">
<path d="M2954.45 1361.74C2964.67 1371.96 2969.77 1384.23 2969.77 1398.57C2969.77 1412.91 2964.67 1425.19 2954.45 1435.4C2944.24 1445.61 2931.96 1450.72 2917.62 1450.72C2903.29 1450.72 2891.01 1445.61 2880.8 1435.4L2826.29 1380.89C2818.92 1373.53 2815.24 1364.69 2815.24 1354.38C2815.24 1344.06 2818.92 1335.23 2826.29 1327.86C2833.66 1320.49 2842.49 1316.81 2852.81 1316.81C2863.12 1316.81 2871.96 1320.49 2879.32 1327.86L2930.88 1379.42C2935.4 1383.94 2937.66 1389.34 2937.66 1395.62C2937.66 1401.91 2935.4 1407.31 2930.88 1411.83C2926.37 1416.35 2920.96 1418.61 2914.68 1418.61C2908.39 1418.61 2902.99 1416.35 2898.47 1411.83L2843.97 1357.32L2855.75 1345.54L2910.26 1400.04C2911.54 1401.32 2913.01 1401.96 2914.68 1401.96C2916.35 1401.96 2917.82 1401.32 2919.1 1400.04C2920.37 1398.77 2921.01 1397.29 2921.01 1395.62C2921.01 1393.95 2920.37 1392.48 2919.1 1391.2L2867.54 1339.64C2863.31 1335.62 2858.38 1333.58 2852.73 1333.53C2847.09 1333.48 2842.2 1335.52 2838.08 1339.64C2833.95 1343.77 2831.89 1348.68 2831.89 1354.38C2831.89 1360.07 2833.95 1364.98 2838.08 1369.11L2892.58 1423.61C2899.46 1430.68 2907.78 1434.2 2917.55 1434.15C2927.32 1434.1 2935.7 1430.59 2942.67 1423.61C2949.54 1416.74 2952.96 1408.46 2952.91 1398.79C2952.86 1389.12 2949.44 1380.7 2942.67 1373.53L2885.22 1316.07L2897 1304.29L2954.45 1361.74Z" fill="black"/>
</g>
<mask id="mask6_1_216" style="mask-type:luminance" maskUnits="userSpaceOnUse" x="1791" y="-32" width="200" height="200">
<path d="M1991 -32H1791V168H1991V-32Z" fill="white"/>
</mask>
<g mask="url(#mask6_1_216)">
<path d="M1941 143L1974.33 109.667L1962.67 97.9999L1949.33 111.333V76.5415H1932.67V111.333L1919.33 97.9999L1907.67 109.667L1941 143ZM1907.67 168V151.333H1974.33V168H1907.67ZM1841 134.667C1836.42 134.667 1832.49 133.035 1829.23 129.771C1825.97 126.507 1824.33 122.583 1824.33 118V1.33321C1824.33 -3.25012 1825.97 -7.17373 1829.23 -10.4376C1832.49 -13.7015 1836.42 -15.3335 1841 -15.3335H1899.33L1949.33 34.6665V59.8749H1932.67V42.9999H1891V1.33321H1841V118H1891V134.667H1841Z" fill="black"/>
</g>
<path d="M878.263 1221.18L905.302 1182.56L891.786 1173.1L880.971 1188.55L874.929 1154.28L858.516 1157.18L864.557 1191.44L849.111 1180.62L839.648 1194.14L878.263 1221.18ZM849.777 1251.59L846.883 1235.17L912.537 1223.6L915.431 1240.01L849.777 1251.59ZM778.335 1230.34C773.821 1231.13 769.674 1230.21 765.893 1227.56C762.112 1224.91 759.823 1221.33 759.028 1216.82L738.769 1101.92C737.973 1097.41 738.899 1093.26 741.546 1089.48C744.194 1085.7 747.774 1083.41 752.288 1082.62L809.735 1072.49L867.658 1113.04L872.035 1137.87L855.622 1140.76L852.691 1124.14L811.658 1131.38L804.422 1090.35L755.182 1099.03L775.441 1213.92L824.681 1205.24L827.576 1221.65L778.335 1230.34Z" fill="black"/>
<mask id="mask7_1_216" style="mask-type:luminance" maskUnits="userSpaceOnUse" x="491" y="671" width="284" height="283">
<path d="M774.454 804.826L625.825 671L491.999 819.629L640.628 953.455L774.454 804.826Z" fill="white"/>
</mask>
<g mask="url(#mask7_1_216)">
<path d="M620.199 901.42L667.275 898.953L666.411 882.476L647.581 883.463L670.861 857.608L658.475 846.456L635.195 872.311L634.208 853.481L617.732 854.344L620.199 901.42ZM578.699 897.694L589.851 885.308L639.394 929.917L628.242 942.303L578.699 897.694ZM551.46 828.314C548.054 825.247 546.231 821.409 545.989 816.799C545.747 812.19 547.16 808.182 550.227 804.776L628.292 718.076C631.359 714.67 635.197 712.846 639.807 712.604C644.416 712.363 648.424 713.775 651.83 716.842L695.18 755.875L698.881 826.489L682.013 845.222L669.627 834.07L680.919 821.529L649.955 793.649L677.835 762.685L640.678 729.228L562.613 815.928L599.77 849.385L588.618 861.77L551.46 828.314Z" fill="black"/>
</g>
<mask id="mask8_1_216" style="mask-type:luminance" maskUnits="userSpaceOnUse" x="2823" y="167" width="254" height="254">
<path d="M3014.21 167.999L2824 229.803L2885.8 420.014L3076.01 358.211L3014.21 167.999Z" fill="white"/>
</mask>
<g mask="url(#mask8_1_216)">
<path d="M2928.21 388.713C2923.85 390.129 2919.61 389.79 2915.5 387.694C2911.39 385.599 2908.62 382.371 2907.2 378.012L2866 251.205C2864.59 246.846 2864.93 242.61 2867.02 238.497C2869.12 234.384 2872.34 231.62 2876.7 230.203L2940.11 209.602L3003.11 241.704L3018.56 289.257L3002.71 294.407L2989.83 254.78L2950.21 267.656L2937.33 228.028L2881.85 246.054L2923.06 372.862L2994.38 349.686L2999.54 365.537L2928.21 388.713ZM3055.58 350.611L3024.61 334.828L3030.34 352.462L3014.48 357.612L2999.94 312.834L3044.71 298.284L3049.86 314.135L3032.03 319.929L3063.01 335.712L3055.58 350.611Z" fill="black"/>
</g>
<mask id="mask9_1_216" style="mask-type:luminance" maskUnits="userSpaceOnUse" x="2181" y="1303" width="248" height="248">
<path d="M2373.56 1303.31L2181.31 1358.44L2236.44 1550.69L2428.69 1495.56L2373.56 1303.31Z" fill="white"/>
</mask>
<g mask="url(#mask9_1_216)">
<path d="M2377.15 1466.99L2289.04 1492.26C2284.63 1493.52 2280.41 1493.04 2276.37 1490.8C2272.34 1488.56 2269.69 1485.24 2268.42 1480.83L2236.26 1368.69C2235 1364.28 2235.49 1360.06 2237.73 1356.02C2239.96 1351.99 2243.29 1349.34 2247.69 1348.07L2303.77 1331.99L2365.61 1366.27L2388.58 1446.38C2389.84 1450.79 2389.36 1455.01 2387.12 1459.04C2384.88 1463.08 2381.56 1465.73 2377.15 1466.99ZM2311.83 1390.36L2300.35 1350.31L2252.29 1364.09L2284.44 1476.24L2372.56 1450.97L2351.89 1378.88L2311.83 1390.36ZM2266.18 1533.49C2261.78 1534.75 2257.56 1534.27 2253.52 1532.03C2249.48 1529.79 2246.83 1526.47 2245.57 1522.06L2213.41 1409.92L2229.43 1405.32L2261.59 1517.47L2349.7 1492.2L2354.3 1508.22L2266.18 1533.49Z" fill="black"/>
</g>
<mask id="mask10_1_216" style="mask-type:luminance" maskUnits="userSpaceOnUse" x="1799" y="572" width="248" height="249">
<path d="M1991.25 572.999L1799 628.127L1854.13 820.379L2046.38 765.252L1991.25 572.999Z" fill="white"/>
</mask>
<g mask="url(#mask10_1_216)">
<path d="M1994.84 736.685L1906.73 761.951C1902.32 763.215 1898.1 762.727 1894.06 760.49C1890.03 758.252 1887.37 754.93 1886.11 750.524L1853.95 638.377C1852.69 633.971 1853.18 629.75 1855.42 625.713C1857.65 621.676 1860.98 619.025 1865.38 617.762L1921.45 601.683L1983.3 635.964L2006.27 716.07C2007.53 720.475 2007.05 724.697 2004.81 728.734C2002.57 732.771 1999.25 735.421 1994.84 736.685ZM1929.52 660.054L1918.04 620.001L1869.97 633.783L1902.13 745.93L1990.25 720.664L1969.58 648.569L1929.52 660.054ZM1883.87 803.181C1879.47 804.445 1875.25 803.957 1871.21 801.72C1867.17 799.482 1864.52 796.16 1863.26 791.754L1831.1 679.607L1847.12 675.013L1879.28 787.16L1967.39 761.894L1971.99 777.915L1883.87 803.181Z" fill="black"/>
</g>
<mask id="mask11_1_216" style="mask-type:luminance" maskUnits="userSpaceOnUse" x="2480" y="1527" width="249" height="248">
<path d="M2673.25 1527L2481 1582.13L2536.13 1774.38L2728.38 1719.25L2673.25 1527Z" fill="white"/>
</mask>
<g mask="url(#mask11_1_216)">
<path d="M2569.29 1738.86C2564.88 1740.13 2560.66 1739.64 2556.62 1737.4C2552.59 1735.16 2549.94 1731.84 2548.67 1727.44L2516.52 1615.29C2515.25 1610.88 2515.74 1606.66 2517.98 1602.62C2520.22 1598.59 2523.54 1595.94 2527.94 1594.67L2640.09 1562.52C2644.5 1561.25 2648.72 1561.74 2652.75 1563.98C2656.79 1566.22 2659.44 1569.54 2660.71 1573.94L2692.86 1686.09C2694.13 1690.5 2693.64 1694.72 2691.4 1698.75C2689.16 1702.79 2685.84 1705.44 2681.44 1706.71L2569.29 1738.86ZM2557.95 1669.08L2580.8 1627.85L2622.03 1650.7L2644.89 1609.47L2655.19 1615.19L2644.68 1578.54L2532.54 1610.7L2547.64 1663.36L2557.95 1669.08ZM2564.7 1722.84L2676.84 1690.68L2661.68 1637.82L2651.37 1632.1L2628.52 1673.33L2587.29 1650.48L2564.44 1691.71L2554.13 1685.99L2564.7 1722.84ZM2564.7 1722.84L2549.53 1669.97L2554.13 1685.99L2532.54 1610.7L2564.7 1722.84Z" fill="black"/>
</g>
<path d="M541 1574.67L449.333 1524.67L541 1474.67L632.667 1524.67L541 1574.67ZM541 1608L454.125 1560.71L471.625 1551.12L541 1589.04L610.375 1551.12L627.875 1560.71L541 1608ZM541 1641.33L454.125 1594.04L471.625 1584.46L541 1622.37L610.375 1584.46L627.875 1594.04L541 1641.33ZM541 1555.71L597.875 1524.67L541 1493.62L484.125 1524.67L541 1555.71Z" fill="black"/>
<path d="M135 1039.33C130.417 1039.33 126.493 1037.7 123.229 1034.44C119.965 1031.17 118.333 1027.25 118.333 1022.67V997.667H135V1022.67H235V997.667H251.667V1022.67C251.667 1027.25 250.035 1031.17 246.771 1034.44C243.507 1037.7 239.583 1039.33 235 1039.33H135ZM118.333 947.667V889.333C118.333 884.75 119.965 880.826 123.229 877.562C126.493 874.299 130.417 872.667 135 872.667H201.667L251.667 922.667V947.667H235V931H193.332V889.333H135V947.667H118.333ZM93.333 981V964.333H276.667V981H93.333Z" fill="black"/>
<mask id="mask12_1_216" style="mask-type:luminance" maskUnits="userSpaceOnUse" x="1000" y="1457" width="236" height="236">
<path d="M1197.09 1457.76L1000.76 1495.92L1038.92 1692.25L1235.25 1654.08L1197.09 1457.76Z" fill="white"/>
</mask>
<g mask="url(#mask12_1_216)">
<path d="M1095.05 1587.95L1176.85 1572.05L1141.47 1540.72L1127.43 1568.92L1111.57 1555.03L1095.05 1587.95ZM1058.69 1662.93C1054.19 1663.81 1050.03 1662.95 1046.2 1660.37C1042.37 1657.79 1040.02 1654.25 1039.15 1649.75L1018.48 1543.41L1034.84 1540.23L1055.51 1646.57L1194.57 1619.54L1197.75 1635.9L1058.69 1662.93ZM1085.05 1623.85C1080.55 1624.73 1076.39 1623.87 1072.56 1621.29C1068.73 1618.71 1066.38 1615.17 1065.51 1610.67L1048.02 1520.69C1047.14 1516.19 1048 1512.03 1050.58 1508.2C1053.16 1504.37 1056.7 1502.02 1061.2 1501.15L1102.1 1493.2L1121.64 1506.38L1178.9 1495.25C1183.4 1494.37 1187.56 1495.23 1191.39 1497.81C1195.22 1500.39 1197.57 1503.93 1198.44 1508.43L1212.75 1582.05C1213.63 1586.55 1212.77 1590.71 1210.19 1594.54C1207.61 1598.37 1204.07 1600.72 1199.57 1601.59L1085.05 1623.85ZM1081.87 1607.49L1196.39 1585.23L1182.08 1511.61L1118.07 1524.05L1098.53 1510.87L1064.38 1517.51L1081.87 1607.49Z" fill="black"/>
</g>
<mask id="mask13_1_216" style="mask-type:luminance" maskUnits="userSpaceOnUse" x="2586" y="984" width="236" height="235">
<path d="M2821.48 1022.16L2625.16 984L2587 1180.33L2783.32 1218.49L2821.48 1022.16Z" fill="white"/>
</mask>
<g mask="url(#mask13_1_216)">
<path d="M2632.67 1163.74C2628.17 1162.86 2624.63 1160.51 2622.05 1156.68C2619.47 1152.86 2618.62 1148.69 2619.49 1144.19L2641.75 1029.67C2642.63 1025.17 2644.98 1021.63 2648.8 1019.05C2652.63 1016.47 2656.79 1015.62 2661.29 1016.49L2726.73 1029.21L2723.55 1045.57L2658.11 1032.85L2635.85 1147.37L2750.37 1169.64L2761.51 1112.37L2777.87 1115.55L2766.74 1172.82C2765.86 1177.31 2763.51 1180.86 2759.68 1183.44C2755.86 1186.02 2751.69 1186.87 2747.19 1186L2632.67 1163.74ZM2647.21 1132.6L2745.37 1151.69L2722.65 1104.82L2691.75 1132.77L2678.11 1104.65L2647.21 1132.6ZM2756.51 1094.42L2763.14 1060.27L2747.55 1070.61L2738.32 1056.93L2777.41 1030.57L2803.77 1069.65L2790.09 1078.88L2779.5 1063.45L2772.87 1097.6L2756.51 1094.42Z" fill="black"/>
</g>
<mask id="mask14_1_216" style="mask-type:luminance" maskUnits="userSpaceOnUse" x="1752" y="982" width="236" height="235">
<path d="M1987.48 1020.16L1791.16 982L1753 1178.33L1949.32 1216.49L1987.48 1020.16Z" fill="white"/>
</mask>
<g mask="url(#mask14_1_216)">
<path d="M1798.67 1161.74C1794.17 1160.86 1790.63 1158.51 1788.05 1154.68C1785.47 1150.86 1784.62 1146.69 1785.49 1142.19L1807.75 1027.67C1808.63 1023.17 1810.98 1019.63 1814.8 1017.05C1818.63 1014.47 1822.79 1013.62 1827.29 1014.49L1892.73 1027.21L1889.55 1043.57L1824.11 1030.85L1801.85 1145.37L1916.37 1167.64L1927.51 1110.37L1943.87 1113.55L1932.74 1170.82C1931.86 1175.31 1929.51 1178.86 1925.68 1181.44C1921.86 1184.02 1917.69 1184.87 1913.19 1184L1798.67 1161.74ZM1813.21 1130.6L1911.37 1149.69L1888.65 1102.82L1857.75 1130.77L1844.11 1102.65L1813.21 1130.6ZM1922.51 1092.42L1929.14 1058.27L1913.55 1068.61L1904.32 1054.93L1943.41 1028.57L1969.77 1067.65L1956.09 1076.88L1945.5 1061.45L1938.87 1095.6L1922.51 1092.42Z" fill="black"/>
</g>
<mask id="mask15_1_216" style="mask-type:luminance" maskUnits="userSpaceOnUse" x="-75" y="1295" width="261" height="261">
<path d="M185.359 1369.92L-0.078125 1295L-74.9994 1480.44L110.437 1555.36L185.359 1369.92Z" fill="white"/>
</mask>
<g mask="url(#mask15_1_216)">
<path d="M54.2039 1483.21C57.4232 1484.51 60.615 1484.49 63.779 1483.14C66.9431 1481.8 69.1755 1479.52 70.4762 1476.3C71.777 1473.08 71.7558 1469.89 70.4127 1466.72C69.0696 1463.56 66.7884 1461.33 63.569 1460.03C60.3496 1458.73 57.1579 1458.75 53.9938 1460.09C50.8298 1461.43 48.5974 1463.71 47.2966 1466.93C45.9959 1470.15 46.0171 1473.34 47.3602 1476.51C48.7032 1479.67 50.9845 1481.9 54.2039 1483.21ZM15.341 1467.05L85.8546 1437.12L79.4079 1421.94L8.89425 1451.87L15.341 1467.05ZM31.1798 1428.96C34.3992 1430.27 37.5909 1430.24 40.755 1428.9C43.9191 1427.56 46.1515 1425.28 47.4522 1422.06C48.7529 1418.84 48.7317 1415.65 47.3887 1412.48C46.0456 1409.32 43.7644 1407.09 40.545 1405.78C37.3256 1404.48 34.1339 1404.51 30.9698 1405.85C27.8057 1407.19 25.5733 1409.47 24.2726 1412.69C22.9719 1415.91 22.9931 1419.1 24.3361 1422.27C25.6792 1425.43 27.9604 1427.66 31.1798 1428.96ZM-22.3977 1483.71C-26.6473 1482 -29.6738 1479.01 -31.4774 1474.77C-33.2809 1470.52 -33.3242 1466.27 -31.6073 1462.02L18.3402 1338.39C20.0572 1334.14 23.0401 1331.12 27.289 1329.31C31.5379 1327.51 35.7872 1327.47 40.0367 1329.18L101.849 1354.16L129.478 1419.25L92.0172 1511.96C90.3002 1516.21 87.3173 1519.24 83.0684 1521.04C78.8195 1522.85 74.5703 1522.89 70.3207 1521.17L-22.3977 1483.71ZM72.2704 1405.12L87.879 1366.49L33.7933 1344.64L-16.1542 1468.26L76.5641 1505.72L110.903 1420.73L72.2704 1405.12Z" fill="black"/>
</g>
<mask id="mask16_1_216" style="mask-type:luminance" maskUnits="userSpaceOnUse" x="-88" y="357" width="236" height="236">
<path d="M109.081 357.756L-87.2441 395.918L-49.0823 592.243L147.243 554.082L109.081 357.756Z" fill="white"/>
</mask>
<g mask="url(#mask16_1_216)">
<path d="M-29.3118 562.933C-33.8109 563.807 -37.9739 562.954 -41.8006 560.373C-45.6273 557.792 -47.9779 554.251 -48.8524 549.752L-69.5234 443.409L-53.1629 440.229L-32.492 546.572L106.572 519.541L109.752 535.901L-29.3118 562.933ZM-2.95125 523.851C-7.45038 524.726 -11.6133 523.873 -15.44 521.292C-19.2667 518.71 -21.6173 515.17 -22.4918 510.671L-39.9826 420.689C-40.8572 416.19 -40.0039 412.027 -37.4227 408.2C-34.8416 404.373 -31.3015 402.023 -26.8023 401.148L14.0988 393.198L33.6394 406.378L90.901 395.247C95.4001 394.373 99.563 395.226 103.39 397.807C107.217 400.388 109.567 403.929 110.442 408.428L124.753 482.05C125.627 486.549 124.774 490.712 122.193 494.539C119.612 498.365 116.071 500.716 111.572 501.59L-2.95125 523.851ZM-6.13139 507.491L108.392 485.23L94.0811 411.608L30.0709 424.05L10.5303 410.87L-23.6222 417.508L-6.13139 507.491Z" fill="black"/>
</g>
<mask id="mask17_1_216" style="mask-type:luminance" maskUnits="userSpaceOnUse" x="103" y="0" width="283" height="283">
<path d="M253.942 0.000108719L103 131.212L234.212 282.154L385.154 150.942L253.942 0.000108719Z" fill="white"/>
</mask>
<g mask="url(#mask17_1_216)">
<path d="M257.088 244.324L240.493 243.016L242.918 208.335L228.767 220.636L217.833 208.057L253.367 177.168L284.257 212.702L271.678 223.637L259.514 209.643L257.088 244.324ZM298.749 203.969L287.814 191.391L325.55 158.588L265.411 89.4056L233.965 116.742L206.629 85.2951L162.604 123.566L217.276 186.458L204.697 197.392L150.026 134.5C147.019 131.041 145.676 127.009 145.998 122.404C146.32 117.8 148.211 113.994 151.67 110.987L201.984 67.2495L272.522 72.182L338.128 147.653C341.135 151.112 342.478 155.144 342.156 159.749C341.834 164.353 339.943 168.159 336.484 171.166L298.749 203.969Z" fill="black"/>
</g>
<path d="M557.667 104C553.083 104 549.16 102.368 545.896 99.1042C542.632 95.8403 541 91.9167 541 87.3333V-29.3333C541 -33.9167 542.632 -37.8403 545.896 -41.1042C549.16 -44.3681 553.083 -46 557.667 -46H674.333C678.917 -46 682.84 -44.3681 686.104 -41.1042C689.368 -37.8403 691 -33.9167 691 -29.3333V87.3333C691 91.9167 689.368 95.8403 686.104 99.1042C682.84 102.368 678.917 104 674.333 104H557.667ZM557.667 87.3333H674.333V-29.3333H557.667V87.3333ZM566 70.6667H666L634.75 29L609.75 62.3333L591 37.3333L566 70.6667Z" fill="black"/>
<path d="M2565.15 21.8126C2567.16 19.7987 2568.17 17.3335 2568.17 14.4168C2568.17 11.5001 2567.16 9.03484 2565.15 7.02094C2563.13 5.00705 2560.67 4.00011 2557.75 4.00011C2554.83 4.00011 2552.37 5.00705 2550.35 7.02094C2548.34 9.03484 2547.33 11.5001 2547.33 14.4168C2547.33 17.3335 2548.34 19.7987 2550.35 21.8126C2552.37 23.8265 2554.83 24.8334 2557.75 24.8334C2560.67 24.8334 2563.13 23.8265 2565.15 21.8126ZM2559.21 62.3334L2605.67 15.8751L2593.79 4.00011L2547.33 50.4584L2559.21 62.3334ZM2602.65 59.3126C2604.66 57.2987 2605.67 54.8334 2605.67 51.9168C2605.67 49.0001 2604.66 46.5348 2602.65 44.5209C2600.63 42.5071 2598.17 41.5001 2595.25 41.5001C2592.33 41.5001 2589.87 42.5071 2587.85 44.5209C2585.84 46.5348 2584.83 49.0001 2584.83 51.9168C2584.83 54.8334 2585.84 57.2987 2587.85 59.3126C2589.87 61.3265 2592.33 62.3334 2595.25 62.3334C2598.17 62.3334 2600.63 61.3265 2602.65 59.3126ZM2622.33 87.3334H2530.67C2526.08 87.3334 2522.16 85.7015 2518.9 82.4376C2515.63 79.1737 2514 75.2501 2514 70.6668V-45.9999C2514 -50.5832 2515.63 -54.5068 2518.9 -57.7707C2522.16 -61.0346 2526.08 -62.6665 2530.67 -62.6665H2589L2639 -12.6665V70.6668C2639 75.2501 2637.37 79.1737 2634.1 82.4376C2630.84 85.7015 2626.92 87.3334 2622.33 87.3334ZM2580.67 -4.33323V-45.9999H2530.67V70.6668H2622.33V-4.33323H2580.67ZM2497.33 120.667C2492.75 120.667 2488.83 119.035 2485.56 115.771C2482.3 112.507 2480.67 108.583 2480.67 104V-12.6665H2497.33V104H2589V120.667H2497.33Z" fill="black"/>
<mask id="mask18_1_216" style="mask-type:luminance" maskUnits="userSpaceOnUse" x="2082" y="168" width="246" height="246">
<path d="M2327.47 220.289L2134.29 168.525L2082.53 361.71L2275.71 413.474L2327.47 220.289Z" fill="white"/>
</mask>
<g mask="url(#mask18_1_216)">
<path d="M2207.97 284.354C2210.43 282.93 2212.04 280.809 2212.8 277.992C2213.55 275.175 2213.22 272.533 2211.8 270.066C2210.37 267.6 2208.25 265.989 2205.43 265.234C2202.62 264.479 2199.97 264.814 2197.51 266.238C2195.04 267.662 2193.43 269.783 2192.68 272.6C2191.92 275.417 2192.26 278.059 2193.68 280.525C2195.1 282.992 2197.22 284.603 2200.04 285.358C2202.86 286.112 2205.5 285.778 2207.97 284.354ZM2191.74 321.957L2248.64 289.106L2240.25 274.562L2183.35 307.413L2191.74 321.957ZM2234.48 330.282C2236.95 328.858 2238.56 326.737 2239.32 323.92C2240.07 321.103 2239.74 318.461 2238.31 315.994C2236.89 313.528 2234.77 311.917 2231.95 311.162C2229.13 310.407 2226.49 310.742 2224.02 312.166C2221.56 313.59 2219.95 315.71 2219.19 318.528C2218.44 321.345 2218.77 323.987 2220.2 326.453C2221.62 328.92 2223.74 330.531 2226.56 331.285C2229.37 332.04 2232.02 331.706 2234.48 330.282ZM2246.25 362.443L2157.7 338.718C2153.28 337.532 2149.91 334.94 2147.6 330.943C2145.29 326.945 2144.73 322.733 2145.92 318.306L2176.11 205.614C2177.3 201.187 2179.89 197.82 2183.89 195.512C2187.89 193.204 2192.1 192.643 2196.53 193.829L2252.87 208.927L2288.23 270.164L2266.66 350.658C2265.47 355.085 2262.88 358.453 2258.88 360.761C2254.89 363.069 2250.67 363.63 2246.25 362.443ZM2229.73 263.116L2240.51 222.869L2192.21 209.928L2162.02 322.619L2250.56 346.345L2269.97 273.9L2229.73 263.116ZM2116.88 362.288C2112.45 361.102 2109.08 358.51 2106.78 354.513C2104.47 350.516 2103.91 346.303 2105.09 341.876L2135.29 229.185L2151.39 233.498L2121.19 346.19L2209.74 369.915L2205.42 386.014L2116.88 362.288Z" fill="black"/>
</g>
<mask id="mask19_1_216" style="mask-type:luminance" maskUnits="userSpaceOnUse" x="-31" y="-103" width="248" height="248">
<path d="M161.562 -102.69L-30.6904 -47.5625L24.437 144.69L216.689 89.5624L161.562 -102.69Z" fill="white"/>
</mask>
<g mask="url(#mask19_1_216)">
<path d="M35.8353 93.7411L31.2413 77.7201L47.2624 73.1261L51.8563 89.1472L35.8353 93.7411ZM27.7959 65.7043L23.2019 49.6833L39.2229 45.0893L43.8169 61.1104L27.7959 65.7043ZM19.7564 37.6675L15.1625 21.6465L31.1835 17.0525L35.7775 33.0736L19.7564 37.6675ZM71.9115 113.738L67.3176 97.7175L83.3386 93.1235L87.9325 109.145L71.9115 113.738ZM82.7499 75.954C78.3441 77.2173 74.1227 76.7301 70.0856 74.4923C66.0485 72.2545 63.3982 68.9327 62.1349 64.5269L34.5712 -31.5993C33.3078 -36.005 33.7951 -40.2265 36.0329 -44.2636C38.2707 -48.3007 41.5925 -50.9509 45.9982 -52.2142L118.093 -72.887C122.499 -74.1504 126.72 -73.6632 130.758 -71.4253C134.795 -69.1875 137.445 -65.8658 138.708 -61.46L166.272 34.6662C167.535 39.072 167.048 43.2934 164.81 47.3305C162.572 51.3676 159.251 54.0178 154.845 55.2812L82.7499 75.954ZM78.1559 59.933L150.251 39.2602L122.687 -56.866L50.5922 -36.1932L78.1559 59.933ZM99.9483 105.699L95.3544 89.678L111.376 85.0841L115.97 101.105L99.9483 105.699ZM59.8957 117.184C55.49 118.447 51.2685 117.96 47.2314 115.722C43.1943 113.484 40.5441 110.163 39.2808 105.757L55.3018 101.163L59.8957 117.184ZM127.986 97.6596L123.392 81.6386L139.413 77.0447C140.676 81.4504 140.189 85.6719 137.951 89.709C135.713 93.7461 132.391 96.3963 127.986 97.6596ZM11.717 9.63074C10.4537 5.22497 10.9409 1.00353 13.1787 -3.03357C15.4165 -7.07067 18.7383 -9.72089 23.1441 -10.9843L27.738 5.0368L11.717 9.63074Z" fill="black"/>
</g>
<mask id="mask20_1_216" style="mask-type:luminance" maskUnits="userSpaceOnUse" x="1168" y="-32" width="264" height="264">
<path d="M1352.98 -31.1238L1168.88 47.0225L1247.03 231.123L1431.13 152.977L1352.98 -31.1238Z" fill="white"/>
</mask>
<g mask="url(#mask20_1_216)">
<path d="M1269.1 176.489L1376.49 130.903L1346.61 60.5232L1293.89 39.2219L1223.51 69.0965L1269.1 176.489ZM1275.61 191.83C1271.39 193.621 1267.14 193.652 1262.86 191.923C1258.58 190.194 1255.55 187.22 1253.75 183.001L1208.17 75.6087C1206.38 71.3897 1206.35 67.1404 1208.08 62.8606C1209.81 58.5809 1212.78 55.5456 1217 53.7548L1293.71 21.1938L1359.27 47.6825L1391.83 124.391C1393.62 128.61 1393.65 132.859 1391.92 137.139C1390.19 141.419 1387.22 144.454 1383 146.245L1275.61 191.83ZM1277.93 154.635L1354.63 122.074L1348.12 106.732L1271.41 139.293L1277.93 154.635ZM1264.9 123.951L1341.61 91.3904L1335.1 76.0486L1258.39 108.609L1264.9 123.951ZM1251.88 93.2678L1305.57 70.4752L1299.06 55.1334L1245.37 77.9261L1251.88 93.2678Z" fill="black"/>
</g>
</g>
</g>
<defs>
<clipPath id="clip0_1_216">
<rect width="2997" height="1713" fill="white"/>
</clipPath>
</defs>
</svg>
